{
	"asset":{
		"generator":"Khronos glTF Blender I/O v4.1.63",
		"version":"2.0"
	},
	"scene":0,
	"scenes":[
		{
			"name":"Scene",
			"nodes":[
				2
			]
		}
	],
	"nodes":[
		{
			"mesh":0,
			"name":"PR33_SPD-A01"
		},
		{
			"children":[
				0
			],
			"name":"RM-X52-TNM"
		},
		{
			"children":[
				1
			],
			"name":"rm-x52-tnm v2"
		}
	],
	"materials":[
		{
			"doubleSided":true,
			"name":"mat_1",
			"pbrMetallicRoughness":{
				"baseColorFactor":[
					0.10000000149011612,
					0.10000000149011612,
					0.10000000149011612,
					1
				],
				"metallicFactor":0.5,
				"roughnessFactor":0.5
			}
		}
	],
	"meshes":[
		{
			"name":"PR33_SPD-A01",
			"primitives":[
				{
					"attributes":{
						"POSITION":0,
						"NORMAL":1
					},
					"indices":2,
					"material":0
				}
			]
		}
	],
	"accessors":[
		{
			"bufferView":0,
			"componentType":5126,
			"count":5401,
			"max":[
				0.009983067400753498,
				0.029007162898778915,
				0.07915925979614258
			],
			"min":[
				-0.029766932129859924,
				-0.028992846608161926,
				-0.0089407442137599
			],
			"type":"VEC3"
		},
		{
			"bufferView":1,
			"componentType":5126,
			"count":5401,
			"type":"VEC3"
		},
		{
			"bufferView":2,
			"componentType":5123,
			"count":13530,
			"type":"SCALAR"
		}
	],
	"bufferViews":[
		{
			"buffer":0,
			"byteLength":64812,
			"byteOffset":0,
			"target":34962
		},
		{
			"buffer":0,
			"byteLength":64812,
			"byteOffset":64812,
			"target":34962
		},
		{
			"buffer":0,
			"byteLength":27060,
			"byteOffset":129624,
			"target":34963
		}
	],
	"buffers":[
		{
			"byteLength":156684,
			"uri":"rm-x52-tnm-j4-01.bin"
		}
	]
}
