{
	"asset":{
		"generator":"Khronos glTF Blender I/O v4.1.63",
		"version":"2.0"
	},
	"scene":0,
	"scenes":[
		{
			"name":"Scene",
			"nodes":[
				0
			]
		}
	],
	"nodes":[
		{
			"mesh":0,
			"name":"SOLID009",
			"rotation":[
				0.5,
				-0.5,
				0.5,
				0.5
			]
		}
	],
	"materials":[
		{
			"doubleSided":true,
			"name":"mat_0",
			"pbrMetallicRoughness":{
				"baseColorFactor":[
					0.0999998152256012,
					0.10000000149011612,
					0.10000000149011612,
					1
				],
				"metallicFactor":0.5,
				"roughnessFactor":0.5
			}
		}
	],
	"meshes":[
		{
			"name":"SOLID009",
			"primitives":[
				{
					"attributes":{
						"POSITION":0,
						"NORMAL":1
					},
					"indices":2,
					"material":0
				}
			]
		}
	],
	"accessors":[
		{
			"bufferView":0,
			"componentType":5126,
			"count":30922,
			"max":[
				0.035249993205070496,
				0.021000009030103683,
				0.0025000215973705053
			],
			"min":[
				-0.012500014156103134,
				-0.023400001227855682,
				-0.24224995076656342
			],
			"type":"VEC3"
		},
		{
			"bufferView":1,
			"componentType":5126,
			"count":30922,
			"type":"VEC3"
		},
		{
			"bufferView":2,
			"componentType":5123,
			"count":79068,
			"type":"SCALAR"
		}
	],
	"bufferViews":[
		{
			"buffer":0,
			"byteLength":371064,
			"byteOffset":0,
			"target":34962
		},
		{
			"buffer":0,
			"byteLength":371064,
			"byteOffset":371064,
			"target":34962
		},
		{
			"buffer":0,
			"byteLength":158136,
			"byteOffset":742128,
			"target":34963
		}
	],
	"buffers":[
		{
			"byteLength":900264,
			"uri":"rm-x52-tnm-j2-long.bin"
		}
	]
}
