{
	"asset":{
		"generator":"Khronos glTF Blender I/O v4.1.63",
		"version":"2.0"
	},
	"scene":0,
	"scenes":[
		{
			"name":"Scene",
			"nodes":[
				0
			]
		}
	],
	"nodes":[
		{
			"mesh":0,
			"name":"ILA-A02_OPEN",
			"rotation":[
				0,
				0,
				0.7071068286895752,
				0.7071067094802856
			]
		}
	],
	"materials":[
		{
			"doubleSided":true,
			"name":"mat_0",
			"pbrMetallicRoughness":{
				"baseColorFactor":[
					0.10000000149011612,
					0.10000000149011612,
					0.10000000149011612,
					1
				],
				"metallicFactor":0.5,
				"roughnessFactor":0.5
			}
		}
	],
	"meshes":[
		{
			"name":"ILA-A02_OPEN",
			"primitives":[
				{
					"attributes":{
						"POSITION":0,
						"NORMAL":1
					},
					"indices":2,
					"material":0
				}
			]
		}
	],
	"accessors":[
		{
			"bufferView":0,
			"componentType":5126,
			"count":24954,
			"max":[
				0.23525001108646393,
				0.020999997854232788,
				0.014250002801418304
			],
			"min":[
				-0.002499997615814209,
				-0.02340000681579113,
				-0.014250006526708603
			],
			"type":"VEC3"
		},
		{
			"bufferView":1,
			"componentType":5126,
			"count":24954,
			"type":"VEC3"
		},
		{
			"bufferView":2,
			"componentType":5123,
			"count":66144,
			"type":"SCALAR"
		}
	],
	"bufferViews":[
		{
			"buffer":0,
			"byteLength":299448,
			"byteOffset":0,
			"target":34962
		},
		{
			"buffer":0,
			"byteLength":299448,
			"byteOffset":299448,
			"target":34962
		},
		{
			"buffer":0,
			"byteLength":132288,
			"byteOffset":598896,
			"target":34963
		}
	],
	"buffers":[
		{
			"byteLength":731184,
			"uri":"rm-x52-tnm-j3-long.bin"
		}
	]
}
