{
	"asset":{
		"generator":"Khronos glTF Blender I/O v4.1.63",
		"version":"2.0"
	},
	"scene":0,
	"scenes":[
		{
			"name":"Scene",
			"nodes":[
				0
			]
		}
	],
	"nodes":[
		{
			"mesh":0,
			"name":"SOLID010"
		}
	],
	"materials":[
		{
			"doubleSided":true,
			"name":"mat_1",
			"pbrMetallicRoughness":{
				"baseColorFactor":[
					0.10000000149011612,
					0.10000000149011612,
					0.10000000149011612,
					1
				],
				"metallicFactor":0.5,
				"roughnessFactor":0.5
			}
		}
	],
	"meshes":[
		{
			"name":"SOLID009.001",
			"primitives":[
				{
					"attributes":{
						"POSITION":0,
						"NORMAL":1
					},
					"indices":2,
					"material":0
				}
			]
		}
	],
	"accessors":[
		{
			"bufferView":0,
			"componentType":5126,
			"count":14968,
			"max":[
				0.02339998260140419,
				0.051750022917985916,
				0.01425000187009573
			],
			"min":[
				-0.019000018015503883,
				1.3224283890167499e-09,
				-0.01425000187009573
			],
			"type":"VEC3"
		},
		{
			"bufferView":1,
			"componentType":5126,
			"count":14968,
			"type":"VEC3"
		},
		{
			"bufferView":2,
			"componentType":5123,
			"count":43224,
			"type":"SCALAR"
		}
	],
	"bufferViews":[
		{
			"buffer":0,
			"byteLength":179616,
			"byteOffset":0,
			"target":34962
		},
		{
			"buffer":0,
			"byteLength":179616,
			"byteOffset":179616,
			"target":34962
		},
		{
			"buffer":0,
			"byteLength":86448,
			"byteOffset":359232,
			"target":34963
		}
	],
	"buffers":[
		{
			"byteLength":445680,
			"uri":"rm-x52-tnm-j0.bin"
		}
	]
}
