{
	"asset":{
		"generator":"Khronos glTF Blender I/O v4.1.63",
		"version":"2.0"
	},
	"scene":0,
	"scenes":[
		{
			"name":"Scene",
			"nodes":[
				0
			]
		}
	],
	"nodes":[
		{
			"mesh":0,
			"name":"SOLID025"
		}
	],
	"materials":[
		{
			"doubleSided":true,
			"name":"mat_0",
			"pbrMetallicRoughness":{
				"baseColorFactor":[
					0.5271151661872864,
					0.5271151661872864,
					0.5271151661872864,
					1
				],
				"metallicFactor":0.5,
				"roughnessFactor":0.5
			}
		},
		{
			"doubleSided":true,
			"name":"mat_1",
			"pbrMetallicRoughness":{
				"baseColorFactor":[
					0.10000000149011612,
					0.10000000149011612,
					0.10000000149011612,
					1
				],
				"metallicFactor":0.5,
				"roughnessFactor":0.5
			}
		}
	],
	"meshes":[
		{
			"name":"SOLID001.003",
			"primitives":[
				{
					"attributes":{
						"POSITION":0,
						"NORMAL":1
					},
					"indices":2,
					"material":0
				},
				{
					"attributes":{
						"POSITION":3,
						"NORMAL":4
					},
					"indices":5,
					"material":1
				}
			]
		}
	],
	"accessors":[
		{
			"bufferView":0,
			"componentType":5126,
			"count":2344,
			"max":[
				0.01929619535803795,
				0.03972024470567703,
				0.041233617812395096
			],
			"min":[
				-0.019253814592957497,
				0.0017210223013535142,
				0.03673859313130379
			],
			"type":"VEC3"
		},
		{
			"bufferView":1,
			"componentType":5126,
			"count":2344,
			"type":"VEC3"
		},
		{
			"bufferView":2,
			"componentType":5123,
			"count":6228,
			"type":"SCALAR"
		},
		{
			"bufferView":3,
			"componentType":5126,
			"count":22157,
			"max":[
				0.06429620832204819,
				0.03777027502655983,
				0.06838773190975189
			],
			"min":[
				-0.06430382281541824,
				-0.0230305977165699,
				-0.0025125970132648945
			],
			"type":"VEC3"
		},
		{
			"bufferView":4,
			"componentType":5126,
			"count":22157,
			"type":"VEC3"
		},
		{
			"bufferView":5,
			"componentType":5123,
			"count":53916,
			"type":"SCALAR"
		}
	],
	"bufferViews":[
		{
			"buffer":0,
			"byteLength":28128,
			"byteOffset":0,
			"target":34962
		},
		{
			"buffer":0,
			"byteLength":28128,
			"byteOffset":28128,
			"target":34962
		},
		{
			"buffer":0,
			"byteLength":12456,
			"byteOffset":56256,
			"target":34963
		},
		{
			"buffer":0,
			"byteLength":265884,
			"byteOffset":68712,
			"target":34962
		},
		{
			"buffer":0,
			"byteLength":265884,
			"byteOffset":334596,
			"target":34962
		},
		{
			"buffer":0,
			"byteLength":107832,
			"byteOffset":600480,
			"target":34963
		}
	],
	"buffers":[
		{
			"byteLength":708312,
			"uri":"rm-x52-tnm-j3.bin"
		}
	]
}
