{
	"asset":{
		"generator":"Khronos glTF Blender I/O v4.1.63",
		"version":"2.0"
	},
	"scene":0,
	"scenes":[
		{
			"name":"Scene",
			"nodes":[
				4
			]
		}
	],
	"nodes":[
		{
			"mesh":0,
			"name":"COMPOUND148",
			"rotation":[
				0,
				0.7071068286895752,
				0,
				0.7071067094802856
			]
		},
		{
			"children":[
				0
			],
			"name":"COMPOUND150"
		},
		{
			"children":[
				1
			],
			"name":"DC12_STD"
		},
		{
			"children":[
				2
			],
			"name":"RM-X52-TNM.001"
		},
		{
			"children":[
				3
			],
			"name":"rm-x52-tnm v2.001",
			"rotation":[
				0,
				0.9999845623970032,
				0,
				0.0055554695427417755
			]
		}
	],
	"materials":[
		{
			"doubleSided":true,
			"name":"mat_1.001",
			"pbrMetallicRoughness":{
				"baseColorFactor":[
					0.10000000149011612,
					0.10000000149011612,
					0.10000000149011612,
					1
				],
				"metallicFactor":0.5,
				"roughnessFactor":0.5
			}
		},
		{
			"doubleSided":true,
			"name":"mat_0",
			"pbrMetallicRoughness":{
				"baseColorFactor":[
					0.5271151661872864,
					0.5271151661872864,
					0.5271151661872864,
					1
				],
				"metallicFactor":0.5,
				"roughnessFactor":0.5
			}
		}
	],
	"meshes":[
		{
			"name":"COMPOUND148",
			"primitives":[
				{
					"attributes":{
						"POSITION":0,
						"NORMAL":1
					},
					"indices":2,
					"material":0
				},
				{
					"attributes":{
						"POSITION":3,
						"NORMAL":4
					},
					"indices":5,
					"material":1
				}
			]
		}
	],
	"accessors":[
		{
			"bufferView":0,
			"componentType":5126,
			"count":9228,
			"max":[
				0.011250006034970284,
				0.04039999097585678,
				0.014250002801418304
			],
			"min":[
				-0.03525001183152199,
				-1.1646386965935562e-08,
				-0.014249990694224834
			],
			"type":"VEC3"
		},
		{
			"bufferView":1,
			"componentType":5126,
			"count":9228,
			"type":"VEC3"
		},
		{
			"bufferView":2,
			"componentType":5123,
			"count":25704,
			"type":"SCALAR"
		},
		{
			"bufferView":3,
			"componentType":5126,
			"count":30,
			"max":[
				0.011250004172325134,
				0.0033999942243099213,
				0.0034000021405518055
			],
			"min":[
				0.009550003334879875,
				-8.480598445714804e-09,
				-0.003399993758648634
			],
			"type":"VEC3"
		},
		{
			"bufferView":4,
			"componentType":5126,
			"count":30,
			"type":"VEC3"
		},
		{
			"bufferView":5,
			"componentType":5123,
			"count":48,
			"type":"SCALAR"
		}
	],
	"bufferViews":[
		{
			"buffer":0,
			"byteLength":110736,
			"byteOffset":0,
			"target":34962
		},
		{
			"buffer":0,
			"byteLength":110736,
			"byteOffset":110736,
			"target":34962
		},
		{
			"buffer":0,
			"byteLength":51408,
			"byteOffset":221472,
			"target":34963
		},
		{
			"buffer":0,
			"byteLength":360,
			"byteOffset":272880,
			"target":34962
		},
		{
			"buffer":0,
			"byteLength":360,
			"byteOffset":273240,
			"target":34962
		},
		{
			"buffer":0,
			"byteLength":96,
			"byteOffset":273600,
			"target":34963
		}
	],
	"buffers":[
		{
			"byteLength":273696,
			"uri":"rm-x52-tnm-base.bin"
		}
	]
}
