{
	"asset":{
		"generator":"Khronos glTF Blender I/O v4.1.63",
		"version":"2.0"
	},
	"scene":0,
	"scenes":[
		{
			"name":"Scene",
			"nodes":[
				2
			]
		}
	],
	"nodes":[
		{
			"mesh":0,
			"name":"PR33_SPD-A002"
		},
		{
			"children":[
				0
			],
			"name":"RM-X52-TNM"
		},
		{
			"children":[
				1
			],
			"name":"rm-x52-tnm v2"
		}
	],
	"materials":[
		{
			"doubleSided":true,
			"name":"mat_1",
			"pbrMetallicRoughness":{
				"baseColorFactor":[
					0.10000000149011612,
					0.10000000149011612,
					0.10000000149011612,
					1
				],
				"metallicFactor":0.5,
				"roughnessFactor":0.5
			}
		}
	],
	"meshes":[
		{
			"name":"PR33_SPD-A01.001",
			"primitives":[
				{
					"attributes":{
						"POSITION":0,
						"NORMAL":1
					},
					"indices":2,
					"material":0
				}
			]
		}
	],
	"accessors":[
		{
			"bufferView":0,
			"componentType":5126,
			"count":5448,
			"max":[
				0.02976142056286335,
				0.02899625524878502,
				0.0790998563170433
			],
			"min":[
				-0.009988579899072647,
				-0.029003744944930077,
				-0.009000180289149284
			],
			"type":"VEC3"
		},
		{
			"bufferView":1,
			"componentType":5126,
			"count":5448,
			"type":"VEC3"
		},
		{
			"bufferView":2,
			"componentType":5123,
			"count":13530,
			"type":"SCALAR"
		}
	],
	"bufferViews":[
		{
			"buffer":0,
			"byteLength":65376,
			"byteOffset":0,
			"target":34962
		},
		{
			"buffer":0,
			"byteLength":65376,
			"byteOffset":65376,
			"target":34962
		},
		{
			"buffer":0,
			"byteLength":27060,
			"byteOffset":130752,
			"target":34963
		}
	],
	"buffers":[
		{
			"byteLength":157812,
			"uri":"rm-x52-tnm-j4-02.bin"
		}
	]
}
