{
	"asset":{
		"generator":"Khronos glTF Blender I/O v4.1.63",
		"version":"2.0"
	},
	"scene":0,
	"scenes":[
		{
			"name":"Scene",
			"nodes":[
				3
			]
		}
	],
	"nodes":[
		{
			"mesh":0,
			"name":"SOLID014"
		},
		{
			"children":[
				0
			],
			"name":"FR12_S103"
		},
		{
			"children":[
				1
			],
			"name":"RM-X52-TNM"
		},
		{
			"children":[
				2
			],
			"name":"rm-x52-tnm v2"
		}
	],
	"materials":[
		{
			"doubleSided":true,
			"name":"mat_1",
			"pbrMetallicRoughness":{
				"baseColorFactor":[
					0.10000000149011612,
					0.10000000149011612,
					0.10000000149011612,
					1
				],
				"metallicFactor":0.5,
				"roughnessFactor":0.5
			}
		},
		{
			"doubleSided":true,
			"name":"mat_0",
			"pbrMetallicRoughness":{
				"baseColorFactor":[
					0.5271151661872864,
					0.5271151661872864,
					0.5271151661872864,
					1
				],
				"metallicFactor":0.5,
				"roughnessFactor":0.5
			}
		}
	],
	"meshes":[
		{
			"name":"SOLID012.001",
			"primitives":[
				{
					"attributes":{
						"POSITION":0,
						"NORMAL":1
					},
					"indices":2,
					"material":0
				},
				{
					"attributes":{
						"POSITION":3,
						"NORMAL":4
					},
					"indices":5,
					"material":1
				}
			]
		}
	],
	"accessors":[
		{
			"bufferView":0,
			"componentType":5126,
			"count":23740,
			"max":[
				0.023464735597372055,
				0.13525140285491943,
				0.014256271533668041
			],
			"min":[
				-0.02093525230884552,
				-0.002498614601790905,
				-0.01424373872578144
			],
			"type":"VEC3"
		},
		{
			"bufferView":1,
			"componentType":5126,
			"count":23740,
			"type":"VEC3"
		},
		{
			"bufferView":2,
			"componentType":5123,
			"count":66144,
			"type":"SCALAR"
		},
		{
			"bufferView":3,
			"componentType":5126,
			"count":560,
			"max":[
				0.013314743526279926,
				0.0850013941526413,
				0.009250940755009651
			],
			"min":[
				-0.013185259886085987,
				0.08355137705802917,
				-0.009238389320671558
			],
			"type":"VEC3"
		},
		{
			"bufferView":4,
			"componentType":5126,
			"count":560,
			"type":"VEC3"
		},
		{
			"bufferView":5,
			"componentType":5123,
			"count":1632,
			"type":"SCALAR"
		}
	],
	"bufferViews":[
		{
			"buffer":0,
			"byteLength":284880,
			"byteOffset":0,
			"target":34962
		},
		{
			"buffer":0,
			"byteLength":284880,
			"byteOffset":284880,
			"target":34962
		},
		{
			"buffer":0,
			"byteLength":132288,
			"byteOffset":569760,
			"target":34963
		},
		{
			"buffer":0,
			"byteLength":6720,
			"byteOffset":702048,
			"target":34962
		},
		{
			"buffer":0,
			"byteLength":6720,
			"byteOffset":708768,
			"target":34962
		},
		{
			"buffer":0,
			"byteLength":3264,
			"byteOffset":715488,
			"target":34963
		}
	],
	"buffers":[
		{
			"byteLength":718752,
			"uri":"rm-x52-tnm-j2.bin"
		}
	]
}
