{
	"asset":{
		"generator":"Khronos glTF Blender I/O v4.1.63",
		"version":"2.0"
	},
	"scene":0,
	"scenes":[
		{
			"name":"Scene",
			"nodes":[
				0
			]
		}
	],
	"nodes":[
		{
			"mesh":0,
			"name":"SOLID008",
			"rotation":[
				0,
				-0.7071068286895752,
				0,
				0.7071068286895752
			]
		}
	],
	"materials":[
		{
			"doubleSided":true,
			"name":"mat_1",
			"pbrMetallicRoughness":{
				"baseColorFactor":[
					0.10000000149011612,
					0.10000000149011612,
					0.10000000149011612,
					1
				],
				"metallicFactor":0.5,
				"roughnessFactor":0.5
			}
		}
	],
	"meshes":[
		{
			"name":"SOLID008",
			"primitives":[
				{
					"attributes":{
						"POSITION":0,
						"NORMAL":1
					},
					"indices":2,
					"material":0
				}
			]
		}
	],
	"accessors":[
		{
			"bufferView":0,
			"componentType":5126,
			"count":28265,
			"max":[
				0.035250019282102585,
				0.1422499418258667,
				0.021000005304813385
			],
			"min":[
				-0.012500009499490261,
				-0.0025000935420393944,
				-0.023399967700242996
			],
			"type":"VEC3"
		},
		{
			"bufferView":1,
			"componentType":5126,
			"count":28265,
			"type":"VEC3"
		},
		{
			"bufferView":2,
			"componentType":5123,
			"count":75804,
			"type":"SCALAR"
		}
	],
	"bufferViews":[
		{
			"buffer":0,
			"byteLength":339180,
			"byteOffset":0,
			"target":34962
		},
		{
			"buffer":0,
			"byteLength":339180,
			"byteOffset":339180,
			"target":34962
		},
		{
			"buffer":0,
			"byteLength":151608,
			"byteOffset":678360,
			"target":34963
		}
	],
	"buffers":[
		{
			"byteLength":829968,
			"uri":"rm-x52-tnm-j1.bin"
		}
	]
}
